<svg xmlns="http://www.w3.org/2000/svg" viewBox="0 0 1600 520" preserveAspectRatio="xMidYMid slice">
<defs>
  <linearGradient id="sky" x1="0" y1="0" x2="0" y2="1">
    <stop offset="0" stop-color="#120d38"/>
    <stop offset=".38" stop-color="#39205f"/>
    <stop offset=".7" stop-color="#8b4b87"/>
    <stop offset="1" stop-color="#172d5e"/>
  </linearGradient>
  <radialGradient id="sun" cx="76%" cy="34%" r="22%">
    <stop offset="0" stop-color="#ffe7bf" stop-opacity=".95"/>
    <stop offset=".18" stop-color="#f7b9d0" stop-opacity=".5"/>
    <stop offset="1" stop-color="#8d5ca5" stop-opacity="0"/>
  </radialGradient>
  <linearGradient id="far" x1="0" y1="0" x2="0" y2="1">
    <stop stop-color="#8e83bf" stop-opacity=".65"/><stop offset="1" stop-color="#29366c" stop-opacity=".9"/>
  </linearGradient>
  <linearGradient id="mid" x1="0" y1="0" x2="0" y2="1">
    <stop stop-color="#4d4a87"/><stop offset="1" stop-color="#14234e"/>
  </linearGradient>
  <linearGradient id="front" x1="0" y1="0" x2="0" y2="1">
    <stop stop-color="#242450"/><stop offset="1" stop-color="#07162f"/>
  </linearGradient>
  <linearGradient id="snow" x1="0" y1="0" x2="1" y2="1">
    <stop stop-color="#f7e8ff" stop-opacity=".9"/><stop offset="1" stop-color="#b8b4e0" stop-opacity=".15"/>
  </linearGradient>
  <filter id="glow"><feGaussianBlur stdDeviation="16"/></filter>
</defs>
<rect width="1600" height="520" fill="url(#sky)"/>
<rect width="1600" height="520" fill="url(#sun)"/>
<ellipse cx="1210" cy="178" rx="170" ry="70" fill="#ffd7cf" opacity=".2" filter="url(#glow)"/>
<circle cx="1210" cy="174" r="25" fill="#ffe8bd" opacity=".8"/>
<path d="M0 340 L120 245 205 315 315 205 390 300 510 220 620 320 740 190 835 295 960 210 1070 300 1190 180 1300 285 1410 205 1600 320 V520 H0Z" fill="url(#far)" opacity=".78"/>
<path d="M0 395 L145 275 250 355 385 235 490 350 625 250 750 365 900 210 1010 345 1160 235 1280 345 1430 225 1600 350 V520 H0Z" fill="url(#mid)" opacity=".96"/>
<path d="M0 430 L175 310 305 405 470 275 600 410 790 235 930 395 1110 250 1260 405 1450 270 1600 370 V520 H0Z" fill="url(#front)"/>
<path d="M790 235 L742 315 780 296 812 326 844 286 875 308 930 395 900 210Z" fill="url(#snow)" opacity=".8"/>
<path d="M1110 250 L1070 322 1108 300 1140 325 1170 292 1205 325 1260 405 1160 235Z" fill="url(#snow)" opacity=".65"/>
<path d="M385 235 L350 285 382 270 410 294 435 268 470 275 490 350Z" fill="url(#snow)" opacity=".45"/>
<path d="M0 390 Q300 335 620 390 T1240 375 T1600 360 V430 Q1300 400 1000 430 T400 425 T0 440Z" fill="#b9c5ef" opacity=".09"/>
<path d="M0 425 Q330 385 700 425 T1600 405 V470 Q1200 440 800 475 T0 470Z" fill="#f0d8ff" opacity=".07"/>
</svg>